<svg xmlns="http://www.w3.org/2000/svg" width="18" height="19" fill="none" viewBox="0 0 18 19">
  <path fill="#FEFEFE" d="M4.849.5v1.257h9.729L5.272 11.816l-.423.456.906.86.423-.458 9.388-10.148c.374.58.52.783.52 1.938v8.654h1.241V4.463C17.327 2.28 15.567.5 13.41.5H4.85ZM1.242 1.572l-.096.096A3.976 3.976 0 0 0 0 4.464v9.592c0 2.182 1.764 3.961 3.923 3.961h9.486a3.887 3.887 0 0 0 2.763-1.157l.097-.098H3.923c-1.477 0-2.681-1.212-2.681-2.706V1.572Zm0 2.892h.268l-.266-.01s-.002.04-.002.01Z"/>
</svg>
