<svg xmlns="http://www.w3.org/2000/svg" width="18" height="19" fill="none" viewBox="0 0 18 19">
  <path fill="#FEFEFE" d="M3.92.5C1.769.5 0 2.287 0 4.464v7.48l1.244-1.433V4.464c0-1.493 1.2-2.71 2.677-2.71h9.486c1.475 0 2.68 1.217 2.68 2.71v9.587c0 1.492-1.204 2.709-2.68 2.709H6.93l-1.09 1.255h7.566c2.152 0 3.92-1.787 3.92-3.964V4.464C17.327 2.287 15.56.5 13.407.5H3.92Zm3.05 4.924L4.783 7.508l.646 3.78-4.12 4.533-.423.466.045.04-.036.04c.254.335.557.615.9.854l1.46-1.685 3.076-3.384 3.5.838 2.597-2.537V8.576L9.39 11.595l-2.763-.662-.524-3.07L8.59 5.424H6.97Z"/>
</svg>
