<svg xmlns="http://www.w3.org/2000/svg" width="18" height="19" fill="none" viewBox="0 0 18 19">
  <path fill="#fff" d="M4.954.5v.788h-.002V18.5h8.83c2.171 0 3.94-1.77 4.01-3.947l-1.967 1.76c-.503.557-1.237.9-2.042.9H6.23V10.19h9.144l-3.753 3.317h1.941l3.38-2.987L18 9.586l-.184.153v-.488l.168.142-1.02-.902-3.458-3.054h-1.938l3.918 3.464H6.23V1.79h7.554c.445 0 .782.269 1.157.456l.03.01 2.81 2.148C17.688 2.249 15.94.5 13.785.5H4.954ZM1.29 1.806C.556 2.544 0 3.454 0 4.573v9.856c0 1.12.556 2.028 1.29 2.765v-2.522c-.007-.078-.014-.154-.014-.243V4.573c0-.09.007-.167.014-.245V1.806Z"/>
</svg>
