<?xml version="1.0" encoding="UTF-8" standalone="no"?>
<!-- Created with Inkscape (http://www.inkscape.org/) -->

<svg
   width="51.16893mm"
   height="36.365219mm"
   viewBox="0 0 51.16893 36.365219"
   version="1.1"
   id="svg1"
   xml:space="preserve"
   inkscape:version="1.3 (0e150ed6c4, 2023-07-21)"
   sodipodi:docname="logo mazowiecka.svg"
   xmlns:inkscape="http://www.inkscape.org/namespaces/inkscape"
   xmlns:sodipodi="http://sodipodi.sourceforge.net/DTD/sodipodi-0.dtd"
   xmlns="http://www.w3.org/2000/svg"
   xmlns:svg="http://www.w3.org/2000/svg"><sodipodi:namedview
     id="namedview1"
     pagecolor="#505050"
     bordercolor="#eeeeee"
     borderopacity="1"
     inkscape:showpageshadow="0"
     inkscape:pageopacity="0"
     inkscape:pagecheckerboard="0"
     inkscape:deskcolor="#d1d1d1"
     inkscape:document-units="mm"
     inkscape:zoom="1"
     inkscape:cx="-46"
     inkscape:cy="222.5"
     inkscape:window-width="1920"
     inkscape:window-height="1009"
     inkscape:window-x="-8"
     inkscape:window-y="-8"
     inkscape:window-maximized="1"
     inkscape:current-layer="layer1" /><defs
     id="defs1" /><g
     inkscape:label="Warstwa 1"
     inkscape:groupmode="layer"
     id="layer1"
     transform="translate(-144.79323,-122.8695)"><path
       id="path1"
       style="fill:#ffffff;fill-opacity:1;stroke-width:0.907;stroke-linecap:square"
       d="m 144.79323,122.8695 v 22.67355 c 0.17384,4.34212 2.36948,9.40305 9.19272,9.40305 4.15557,-0.006 11.96051,0 11.96051,0 1.87864,0 3.79381,2.65982 4.2571,4.28862 -9e-5,-0.005 8e-4,-0.0475 8e-4,-0.003 0.43173,-1.62237 2.37231,-4.21679 4.27467,-4.21679 h 17.9002 l 3.40444,-5.89732 h -20.30005 c -4.25878,0 -5.21402,2.95291 -5.27048,6.11879 -0.0497,-3.10579 -0.99399,-6.187 -5.27203,-6.187 h -11.01224 c -1.7813,0 -3.19981,-0.53778 -3.19981,-3.30729 v -16.97468 h 15.39338 c 1.88039,0 3.79765,2.66438 4.25865,4.29277 -2e-5,0.0218 -5.1e-4,0.0428 -5.2e-4,0.0646 0.003,-0.0106 0.007,-0.0224 0.0103,-0.0331 0.002,0.009 0.006,0.0183 0.008,0.0269 0,-0.0176 -5e-4,-0.0346 -5.2e-4,-0.0522 0.46101,-1.62839 2.37825,-4.29328 4.25865,-4.29328 h 17.9002 l 3.40496,-5.89732 h -20.30057 c -4.27732,0 -5.2305,2.69261 -5.27202,4.90997 -0.0404,-2.17186 -0.99298,-4.91565 -5.27203,-4.91565 H 150.7293 v -5.2e-4 z m 30.77486,13.33046 c -4.56587,0 -5.28101,4.58809 -5.28133,10.24847 0.43173,-1.62237 2.37439,-4.35116 4.27674,-4.35116 h 17.90072 l 3.40444,-5.89731 z"
       sodipodi:nodetypes="ccccccsccscssscscccccsccscscccscsccs" /></g></svg>
